<svg width="294" height="57" xmlns="http://www.w3.org/2000/svg" xmlns:xlink="http://www.w3.org/1999/xlink" xml:space="preserve" overflow="hidden"><defs><clipPath id="clip0"><rect x="493" y="624" width="294" height="57"/></clipPath></defs><g clip-path="url(#clip0)" transform="translate(-493 -624)"><path d="M19.6151 50.4503C19.5666 50.4341 19.5182 50.418 19.4698 50.418 18.7594 50.2565 18.4204 49.7722 18.3235 49.1426 18.3074 48.9973 18.2913 48.852 18.2913 48.7067 18.2913 48.061 18.2913 47.4152 18.2913 46.7694 18.2913 46.721 18.2913 46.6726 18.2913 46.608 18.5657 46.608 18.8402 46.608 19.1146 46.608 19.1146 46.6564 19.1146 46.7048 19.1146 46.7533 19.1146 47.399 19.1146 48.0287 19.1146 48.6744 19.1146 48.7874 19.1307 48.9004 19.1469 49.0296 19.2276 49.5462 19.6312 49.7399 20.0671 49.6754 20.4707 49.6269 20.6967 49.3686 20.7452 48.9489 20.7452 48.8843 20.7452 48.8197 20.7452 48.7713 20.7452 48.1094 20.7452 47.4475 20.7452 46.8017 20.7452 46.7533 20.7452 46.7048 20.7452 46.6564 20.842 46.6241 21.2941 46.608 21.5685 46.6403 21.5685 46.6726 21.5846 46.7048 21.5846 46.7371 21.5846 47.4475 21.5846 48.1578 21.5846 48.8682 21.5846 49.0942 21.5362 49.3202 21.4716 49.5301 21.2779 50.0467 20.8904 50.3373 20.3577 50.4341 20.3254 50.4341 20.2931 50.4503 20.2447 50.4664 20.0348 50.4503 19.8249 50.4503 19.6151 50.4503Z" transform="matrix(1 0 0 1.00816 493 624.408)"/><path d="M42.6042 50.4503C42.5235 50.4341 42.4267 50.418 42.3459 50.4018 41.9746 50.3211 41.6356 50.1597 41.345 49.9175 41.3127 49.9014 41.2966 49.8691 41.2643 49.8368 41.4257 49.6431 41.5872 49.4493 41.7486 49.2556 41.797 49.2879 41.8455 49.3202 41.8778 49.3525 42.1845 49.5785 42.5235 49.7238 42.8948 49.7076 43.0079 49.7076 43.137 49.6754 43.2339 49.6269 43.476 49.5139 43.4922 49.2072 43.25 49.078 43.1209 48.9973 42.9594 48.9489 42.8141 48.9004 42.6527 48.852 42.4751 48.8036 42.2975 48.7551 42.2006 48.7229 42.1199 48.6906 42.0231 48.6583 41.571 48.4646 41.3773 48.1578 41.3934 47.6573 41.4096 47.1569 41.7002 46.7856 42.1845 46.6403 42.7334 46.4788 43.25 46.5596 43.7505 46.8017 43.8796 46.8663 43.9926 46.947 44.1218 47.0277 43.9765 47.2376 43.8312 47.4475 43.6859 47.6573 43.6213 47.6251 43.5729 47.5928 43.5245 47.5605 43.2984 47.4152 43.0563 47.3183 42.7818 47.3022 42.6527 47.286 42.5235 47.3022 42.4105 47.3668 42.2975 47.4152 42.2168 47.5121 42.2168 47.6412 42.2168 47.7704 42.2652 47.8672 42.3782 47.9318 42.4751 47.9802 42.5881 48.0287 42.7011 48.061 42.9271 48.1255 43.1531 48.1901 43.3792 48.2547 43.5245 48.3031 43.6536 48.3677 43.7828 48.4484 44.0895 48.626 44.2348 48.9004 44.2348 49.2556 44.2509 49.6431 44.1218 49.966 43.8151 50.2081 43.6375 50.3373 43.4276 50.418 43.2177 50.4664 43.1854 50.4664 43.1531 50.4826 43.1209 50.4987 42.9594 50.4503 42.7818 50.4503 42.6042 50.4503Z" transform="matrix(1 0 0 1.00816 493 624.408)"/><path d="M18.3074 35.1295C18.3074 33.5797 18.3074 32.0137 18.3074 30.4478 21.9075 30.4478 25.4915 30.4478 29.1239 30.4478 29.0755 30.3993 29.0432 30.367 29.0271 30.3347 27.9131 29.3822 26.7992 28.4136 25.6691 27.4611 23.3605 25.4915 21.0519 23.5058 18.7594 21.5362 18.6464 21.4393 18.5173 21.3263 18.3881 21.2295 18.3235 21.181 18.3074 21.1165 18.3074 21.0357 18.3074 20.7452 18.3074 20.4546 18.3074 20.164 18.3074 18.6464 18.3074 17.1289 18.3074 15.6113 18.3074 15.5629 18.3074 15.5145 18.3074 15.466 18.3235 15.466 18.3235 15.4499 18.3397 15.4499 21.9398 18.5334 25.5399 21.6169 29.1401 24.7005 32.7402 21.6169 36.3403 18.5334 39.9566 15.4337 39.9566 15.4822 39.9728 15.5145 39.9728 15.5468 39.9728 17.371 39.9728 19.2115 39.9728 21.0357 39.9728 21.1326 39.9405 21.181 39.8759 21.2295 38.9395 22.0367 38.0032 22.8277 37.0668 23.6349 34.7421 25.6207 32.4335 27.6064 30.1087 29.5921 29.8343 29.8343 29.5437 30.0764 29.2692 30.3186 29.2369 30.3347 29.2208 30.367 29.1885 30.3832 29.1885 30.3993 29.1885 30.3993 29.1885 30.3993 29.1885 30.3993 29.1885 30.3993 29.2047 30.4155 29.2208 30.4155 29.2369 30.4155 29.2531 30.4155 32.8209 30.4155 36.3888 30.4155 39.9405 30.4155 39.9405 30.4155 39.9566 30.4155 39.9566 30.4155 39.9566 30.4155 39.9566 30.4155 39.9728 30.4316 39.9728 31.9814 39.9728 33.5474 39.9728 35.0972 39.8598 35.1618 18.4688 35.1618 18.3074 35.1295Z" transform="matrix(1 0 0 1.00816 493 624.408)"/><path d="M43.4922 15.4499C45.0904 15.4499 46.6564 15.4499 48.2547 15.4499 48.2547 15.4822 48.2708 15.5145 48.2708 15.5629 48.2708 15.6113 48.2708 15.6436 48.2708 15.6921 48.2708 19.0339 48.2708 22.3757 48.2708 25.7175 48.2708 26.4763 48.3515 27.2189 48.5776 27.9616 48.739 28.5105 48.9812 29.0271 49.3363 29.4953 49.8852 30.1894 50.5956 30.6415 51.4351 30.8836 52.0647 31.0612 52.6943 31.0935 53.3562 31.0612 53.8728 31.0289 54.3894 30.9321 54.8738 30.7545 55.9554 30.3509 56.698 29.5921 57.1501 28.5266 57.3922 27.9616 57.5214 27.3804 57.5698 26.7669 57.6021 26.3794 57.6182 25.992 57.6182 25.6045 57.6182 22.295 57.6182 18.9693 57.6182 15.6598 57.6182 15.5952 57.6182 15.5468 57.6182 15.4822 57.7313 15.4499 62.2032 15.4337 62.3808 15.466 62.3808 15.5145 62.3808 15.5468 62.3808 15.5952 62.3808 19.0662 62.3969 22.5371 62.3808 26.0081 62.3808 27.3965 62.1709 28.7526 61.6866 30.0603 61.3152 31.0935 60.7663 32.0299 60.0076 32.8371 59.1842 33.725 58.1833 34.3385 57.0532 34.7744 56.3106 35.0488 55.5518 35.2264 54.7769 35.3394 54.0827 35.4363 53.3885 35.4686 52.6943 35.4686 51.3866 35.4524 50.1113 35.2748 48.8843 34.8389 47.3022 34.2739 46.0107 33.3214 45.0743 31.9169 44.4931 31.0451 44.1056 30.0764 43.8473 29.0594 43.6859 28.3813 43.5729 27.671 43.5406 26.9768 43.5083 26.5247 43.4922 26.0727 43.4922 25.6207 43.4922 22.295 43.4922 18.9854 43.4922 15.6598 43.4922 15.579 43.4922 15.5306 43.4922 15.4499Z" transform="matrix(1 0 0 1.00816 493 624.408)"/><path d="M9.86404 15.4499C11.4946 15.4499 13.1251 15.4499 14.7557 15.4499 14.7557 15.4983 14.7557 15.5468 14.7557 15.5952 14.7557 19.7119 14.7718 23.8287 14.7557 27.9454 14.7557 29.1239 14.5458 30.2702 14.0938 31.3518 13.3512 33.1115 12.0596 34.3062 10.2515 34.9358 9.62188 35.1618 8.97611 35.291 8.31421 35.3556 7.66844 35.4201 7.02268 35.4363 6.37691 35.404 4.14903 35.2587 2.21174 34.4353 0.629619 32.8532 0.43589 32.6595 0.258305 32.4496 0.0807204 32.2559 0.0484323 32.2236 0.0322882 32.2075 0 32.159 1.00093 31.0451 1.98572 29.9473 3.0028 28.8172 3.05123 28.8656 3.08352 28.8979 3.11581 28.9302 3.58399 29.4145 4.06831 29.8827 4.63335 30.254 5.13382 30.5769 5.68272 30.8191 6.28005 30.9159 6.81281 31.0128 7.34556 30.9967 7.86217 30.8675 8.65323 30.6576 9.20213 30.1572 9.52501 29.4145 9.7026 29.0109 9.79946 28.575 9.83175 28.1391 9.86404 27.8163 9.86404 27.4934 9.86404 27.1705 9.86404 23.3282 9.86404 19.4698 9.86404 15.6275 9.86404 15.579 9.86404 15.5145 9.86404 15.4499Z" transform="matrix(1 0 0 1.00816 493 624.408)"/><path d="M39.44 42.3782C39.44 43.1531 39.44 43.9281 39.44 44.703 39.327 44.7353 38.7942 44.7353 38.6328 44.7191 38.6328 43.4599 38.6328 42.2168 38.6328 40.9414 38.6974 40.9414 38.762 40.9414 38.8265 40.9414 38.9718 40.9414 39.101 40.9414 39.2463 40.9414 39.3431 40.9414 39.4077 40.9737 39.4723 41.0544 39.9889 41.7486 40.5217 42.4428 41.0544 43.1209 41.0867 43.1531 41.119 43.1854 41.1513 43.25 41.1674 43.0401 41.1674 42.8464 41.1674 42.6527 41.1674 42.459 41.1674 42.2814 41.1674 42.0876 41.1674 41.8939 41.1674 41.7002 41.1674 41.5065 41.1674 41.3289 41.1674 41.1351 41.1674 40.9414 41.4419 40.9414 41.7163 40.9414 41.9746 40.9414 42.0069 41.0383 42.0069 44.5254 41.9908 44.7191 41.9423 44.7191 41.9101 44.7191 41.8616 44.7191 41.7163 44.7191 41.571 44.7191 41.4257 44.7191 41.3289 44.7191 41.2643 44.6868 41.2159 44.6061 40.8607 44.1218 40.4894 43.6536 40.1342 43.1854 39.9405 42.9433 39.7629 42.7011 39.5692 42.4428 39.5369 42.4105 39.5207 42.3782 39.4884 42.3459 39.4562 42.3621 39.44 42.3782 39.44 42.3782Z" transform="matrix(1 0 0 1.00816 493 624.408)"/><path d="M69.1774 46.6241C69.1774 47.8672 69.1774 49.1265 69.1774 50.3857 69.1451 50.3857 69.0967 50.4018 69.0644 50.4018 68.903 50.4018 68.7577 50.4018 68.5962 50.4018 68.4994 50.4018 68.4509 50.3696 68.3864 50.305 67.9828 49.7722 67.5792 49.2395 67.1594 48.7067 66.998 48.4807 66.8204 48.2708 66.6589 48.0448 66.6428 48.0448 66.6428 48.0448 66.6428 48.0448 66.6428 48.0448 66.6428 48.0448 66.6428 48.061 66.6428 48.0771 66.6428 48.0932 66.6428 48.1094 66.6428 48.8682 66.6428 49.6108 66.6428 50.3696 66.6428 50.3696 66.6428 50.3857 66.6428 50.3857 66.6428 50.3857 66.6428 50.3857 66.6267 50.4018 66.3683 50.4018 66.11 50.4018 65.8356 50.4018 65.8033 50.2888 65.8033 46.7694 65.8356 46.6241 66.0616 46.6241 66.3038 46.6241 66.5459 46.6241 66.5782 46.6241 66.6267 46.6726 66.6428 46.7048 66.8042 46.9147 66.9495 47.1085 67.111 47.3183 67.4823 47.8026 67.8536 48.287 68.2249 48.7713 68.2572 48.8197 68.2895 48.852 68.3218 48.8843 68.3379 48.8843 68.3379 48.8843 68.3379 48.8843 68.3379 48.8843 68.3541 48.8843 68.3541 48.8682 68.3541 48.1255 68.3541 47.3668 68.3541 46.6403 68.4671 46.608 68.9998 46.608 69.1774 46.6241Z" transform="matrix(1 0 0 1.00816 493 624.408)"/><path d="M23.5381 48.0287C23.5381 48.8359 23.5381 49.6108 23.5381 50.4018 23.2636 50.4018 23.0053 50.4018 22.7309 50.4018 22.6986 50.305 22.6986 46.8017 22.7309 46.6241 22.8762 46.6241 23.0215 46.6241 23.1668 46.6241 23.2636 46.6241 23.3928 46.608 23.4735 46.6403 23.5542 46.6887 23.6027 46.7856 23.6672 46.8663 24.1516 47.5121 24.652 48.1578 25.1363 48.8036 25.1525 48.8359 25.1848 48.8682 25.2332 48.8843 25.2332 48.513 25.2332 48.1417 25.2332 47.7542 25.2332 47.3829 25.2332 46.9954 25.2332 46.6241 25.5077 46.6241 25.7821 46.6241 26.0566 46.6241 26.0566 47.8834 26.0566 49.1265 26.0566 50.3857 26.0243 50.3857 25.992 50.4018 25.9597 50.4018 25.7983 50.4018 25.6368 50.4018 25.4915 50.4018 25.3947 50.4018 25.3462 50.3696 25.2978 50.305 24.8296 49.6915 24.3614 49.078 23.8933 48.4484 23.7964 48.3354 23.7157 48.2062 23.6188 48.0932 23.6027 48.0771 23.5865 48.061 23.5381 48.0287Z" transform="matrix(1 0 0 1.00816 493 624.408)"/><path d="M35.1134 44.7191C34.8389 44.7191 34.5645 44.7191 34.29 44.7191 34.29 43.4599 34.29 42.2006 34.29 40.9414 34.4353 40.9414 34.5806 40.9576 34.7259 40.9414 34.9681 40.9091 35.0972 41.006 35.2425 41.1997 35.7107 41.8455 36.2112 42.4912 36.7117 43.137 36.7439 43.1693 36.7762 43.2016 36.8247 43.2662 36.8408 43.1209 36.8247 42.9917 36.8408 42.8626 36.8408 42.7334 36.8408 42.6042 36.8408 42.4912 36.8408 42.3621 36.8408 42.2329 36.8408 42.1038 36.8408 41.9746 36.8408 41.8455 36.8408 41.7325 36.8408 41.6195 36.8408 41.4742 36.8408 41.3612 36.8408 41.232 36.8408 41.1028 36.8408 40.9737 37.1153 40.9737 37.3897 40.9737 37.648 40.9737 37.648 42.2329 37.648 43.476 37.648 44.7514 37.5996 44.7514 37.5673 44.7676 37.5189 44.7676 37.3736 44.7676 37.2121 44.7676 37.0668 44.7676 36.97 44.7676 36.9054 44.7353 36.857 44.6707 36.5018 44.1864 36.1305 43.7182 35.7592 43.2339 35.5654 42.9917 35.3878 42.7334 35.1941 42.4912 35.178 42.459 35.1457 42.4428 35.1134 42.3944 35.1134 42.5558 35.1134 42.685 35.1134 42.8141 35.1134 42.9433 35.1134 43.0724 35.1134 43.2016 35.1134 43.3307 35.1134 43.4599 35.1134 43.589 35.1134 43.7182 35.1134 43.8473 35.1134 43.9765 35.1134 44.1056 35.1134 44.2348 35.1134 44.364 35.1134 44.4447 35.1134 44.59 35.1134 44.7191Z" transform="matrix(1 0 0 1.00816 493 624.408)"/><path d="M21.2779 42.8464C21.2779 41.8293 22.0044 41.0221 23.0215 40.893 23.6027 40.8284 24.1354 40.9414 24.5874 41.3127 25.0395 41.684 25.2816 42.1684 25.2978 42.7657 25.3301 43.7343 24.6682 44.5738 23.6995 44.7514 22.8923 44.9129 22.0367 44.6061 21.5846 43.8958 21.3909 43.589 21.2779 43.2339 21.2779 42.8464ZM22.1497 42.8141C22.1658 42.9271 22.1658 43.024 22.1981 43.137 22.3111 43.5729 22.5694 43.8796 23.0215 43.9765 23.4574 44.0895 23.8448 43.9765 24.1516 43.6375 24.3776 43.3792 24.4583 43.0563 24.4422 42.7173 24.3776 41.9746 23.6995 41.4903 22.9892 41.684 22.4887 41.8132 22.1658 42.2652 22.1497 42.8141Z" transform="matrix(1 0 0 1.00816 493 624.408)"/><path d="M40.6024 50.4018C40.2795 50.4018 39.9889 50.4018 39.6983 50.4018 39.6337 50.4018 39.6015 50.3696 39.5692 50.3211 39.3431 49.9821 39.1171 49.6592 38.8911 49.3202 38.8588 49.2879 38.8427 49.2395 38.8104 49.2072 38.6005 49.2072 38.3906 49.2072 38.1646 49.2072 38.1646 49.6108 38.1646 49.9982 38.1646 50.3857 38.0516 50.418 37.5027 50.418 37.3251 50.4018 37.3251 49.1588 37.3251 47.8995 37.3251 46.6403 37.3574 46.6403 37.3897 46.6241 37.4381 46.6241 38.0032 46.6241 38.5682 46.6241 39.1333 46.6241 39.3431 46.6241 39.5369 46.6564 39.7306 46.7371 40.1342 46.8986 40.3925 47.1892 40.4571 47.6251 40.4894 47.8511 40.4894 48.061 40.4248 48.2708 40.3279 48.5937 40.1342 48.8197 39.8436 48.9812 39.8113 48.9973 39.779 49.0135 39.7629 49.0296 39.7467 49.0457 39.7145 49.0619 39.6822 49.078 39.9889 49.4978 40.2956 49.9337 40.6024 50.4018ZM38.1808 48.4484C38.2292 48.4484 38.2615 48.4484 38.2938 48.4484 38.5198 48.4484 38.7297 48.4484 38.9557 48.4484 39.0364 48.4484 39.1333 48.4323 39.214 48.4161 39.4723 48.3677 39.6499 48.174 39.6499 47.9157 39.6499 47.6412 39.5046 47.4475 39.2301 47.3829 39.1817 47.3668 39.1494 47.3668 39.101 47.3668 38.7942 47.3668 38.4875 47.3668 38.1969 47.3668 38.1969 47.3668 38.1808 47.3829 38.1646 47.3829 38.1808 47.7381 38.1808 48.0932 38.1808 48.4484Z" transform="matrix(1 0 0 1.00816 493 624.408)"/><path d="M70.0653 40.9414C70.1138 40.9414 70.1461 40.9414 70.1784 40.9414 70.695 40.9414 71.2116 40.9414 71.7282 40.9414 71.9219 40.9414 72.1156 40.9576 72.3094 41.006 72.8421 41.1513 73.165 41.5387 73.1812 42.1038 73.1812 42.2652 73.1812 42.4267 73.1327 42.572 73.052 42.911 72.8421 43.1531 72.5354 43.2984 72.487 43.3146 72.4547 43.3469 72.4062 43.363 72.4062 43.363 72.4062 43.363 72.3901 43.3792 72.6807 43.8151 72.9874 44.2509 73.2942 44.703 73.2296 44.703 73.1973 44.7191 73.1812 44.7191 72.939 44.7191 72.6968 44.7191 72.4547 44.7191 72.374 44.7191 72.3255 44.6868 72.2771 44.6223 72.0511 44.2832 71.8251 43.9442 71.599 43.6052 71.5506 43.5245 71.486 43.4922 71.3892 43.4922 71.2277 43.4922 71.0501 43.4922 70.8726 43.4922 70.8726 43.8958 70.8726 44.2994 70.8726 44.703 70.5981 44.703 70.3237 44.703 70.0653 44.703 70.0492 44.6223 70.0331 41.1351 70.0653 40.9414ZM70.8887 42.7657C70.9048 42.7657 70.921 42.7818 70.9371 42.7818 71.2277 42.7818 71.5183 42.7818 71.8089 42.7818 71.8896 42.7818 71.9865 42.7495 72.0672 42.7173 72.2771 42.6365 72.374 42.459 72.374 42.2168 72.374 41.9908 72.2609 41.8132 72.0349 41.7486 71.9381 41.7163 71.8089 41.7002 71.712 41.7002 71.486 41.7002 71.2439 41.7002 71.0178 41.7002 70.9856 41.7002 70.9533 41.7002 70.9048 41.7163 70.8887 42.0553 70.8887 42.4105 70.8887 42.7657Z" transform="matrix(1 0 0 1.00816 493 624.408)"/><path d="M55.7455 40.9414C56.698 40.9414 57.6344 40.9414 58.5869 40.9414 58.5869 41.1836 58.5869 41.4257 58.5869 41.6679 57.9088 41.6679 57.2469 41.6679 56.5689 41.6679 56.5689 41.9262 56.5689 42.1684 56.5689 42.4267 57.1501 42.4267 57.7474 42.4267 58.3447 42.4267 58.3447 42.685 58.3447 42.9271 58.3447 43.1693 57.7474 43.1693 57.1662 43.1693 56.5689 43.1693 56.5689 43.3146 56.5689 43.4437 56.5689 43.5729 56.5689 43.702 56.5689 43.8312 56.5689 43.9604 57.2469 43.9604 57.925 43.9604 58.603 43.9604 58.6353 44.0734 58.6353 44.5415 58.6192 44.7191 57.6667 44.7191 56.7142 44.7191 55.7455 44.7191 55.7455 43.4599 55.7455 42.2006 55.7455 40.9414Z" transform="matrix(1 0 0 1.00816 493 624.408)"/><path d="M25.9597 44.7191C25.9597 43.4599 25.9597 42.2006 25.9597 40.9414 26.2341 40.9414 26.5086 40.9414 26.783 40.9414 26.783 41.4257 26.783 41.9262 26.783 42.4105 26.8961 42.4428 28.01 42.459 28.3167 42.4267 28.3329 41.9423 28.3167 41.4419 28.3167 40.9414 28.5912 40.9414 28.8656 40.9414 29.1401 40.9414 29.1401 42.2006 29.1401 43.4599 29.1401 44.7191 28.8656 44.7191 28.5912 44.7191 28.3167 44.7191 28.3167 44.2187 28.3167 43.7182 28.3167 43.2177 27.8001 43.2177 27.2997 43.2177 26.783 43.2177 26.783 43.7182 26.783 44.2187 26.783 44.7191 26.5086 44.7191 26.2341 44.7191 25.9597 44.7191Z" transform="matrix(1 0 0 1.00816 493 624.408)"/><path d="M43.7666 41.684C43.7666 41.9423 43.7666 42.1845 43.7666 42.4428 44.0734 42.4428 44.364 42.4428 44.6545 42.4428 44.9451 42.4428 45.2357 42.4428 45.5425 42.4428 45.5425 42.7011 45.5425 42.9271 45.5425 43.1854 45.3972 43.2016 45.2519 43.1854 45.1066 43.1854 44.9613 43.1854 44.816 43.1854 44.6707 43.1854 44.5254 43.1854 44.364 43.1854 44.2187 43.1854 44.0734 43.1854 43.9281 43.1854 43.7828 43.1854 43.7505 43.2823 43.7505 43.7666 43.7666 43.9765 44.4447 43.9765 45.1227 43.9765 45.8008 43.9765 45.8008 44.2348 45.8008 44.4608 45.8008 44.703 45.7039 44.7353 43.0724 44.7353 42.9271 44.703 42.9271 43.4599 42.9271 42.2006 42.9271 40.9576 43.024 40.9253 45.6071 40.9253 45.7685 40.9576 45.7685 41.1836 45.7685 41.4257 45.7685 41.684 45.5425 41.684 45.3165 41.684 45.1066 41.684 44.8806 41.684 44.6545 41.684 44.4285 41.684 44.2187 41.684 43.9926 41.684 43.7666 41.684Z" transform="matrix(1 0 0 1.00816 493 624.408)"/><path d="M69.2097 40.9576C69.2097 41.1997 69.2097 41.4257 69.2097 41.684 68.5317 41.684 67.8698 41.684 67.1917 41.684 67.1917 41.9423 67.1917 42.1845 67.1917 42.4428 67.789 42.4428 68.3702 42.4428 68.9514 42.4428 68.9837 42.572 68.9675 42.685 68.9675 42.8141 68.9675 42.9271 68.9675 43.0563 68.9675 43.2016 68.7577 43.2016 68.5639 43.2016 68.3702 43.2016 68.1765 43.2016 67.9828 43.2016 67.789 43.2016 67.5953 43.2016 67.4016 43.2016 67.1917 43.2016 67.1917 43.4599 67.1917 43.7182 67.1917 43.9926 67.8698 43.9926 68.5478 43.9926 69.2259 43.9926 69.2259 44.2348 69.2259 44.477 69.2259 44.7191 69.129 44.7514 66.5136 44.7514 66.3522 44.7191 66.3522 43.476 66.3522 42.2168 66.3522 40.9737 66.4814 40.9253 69.0644 40.9253 69.2097 40.9576Z" transform="matrix(1 0 0 1.00816 493 624.408)"/><path d="M36.0336 48.8682C35.4363 48.8682 34.8712 48.8682 34.29 48.8682 34.2578 48.9812 34.2578 49.4816 34.2739 49.6592 34.952 49.6592 35.6139 49.6592 36.3081 49.6592 36.3081 49.9175 36.3081 50.1435 36.3081 50.3857 35.3556 50.3857 34.4031 50.3857 33.4506 50.3857 33.4183 50.2888 33.4183 46.8017 33.4506 46.6241 34.3869 46.6241 35.3233 46.6241 36.2919 46.6241 36.2919 46.8663 36.2919 47.0923 36.2919 47.3506 35.6139 47.3668 34.952 47.3506 34.2739 47.3506 34.2739 47.6089 34.2739 47.8511 34.2739 48.1094 34.8712 48.1094 35.4524 48.1094 36.0336 48.1094 36.0336 48.3677 36.0336 48.6099 36.0336 48.8682Z" transform="matrix(1 0 0 1.00816 493 624.408)"/><path d="M55.1966 44.7353C55.0513 44.7353 54.906 44.7353 54.7607 44.7353 54.6316 44.7353 54.4863 44.7353 54.3571 44.7353 54.2603 44.7353 54.2119 44.703 54.1634 44.6384 53.8244 44.1702 53.5015 43.7182 53.1625 43.25 53.1302 43.2177 53.0979 43.1693 53.0818 43.137 52.9365 43.2662 52.8073 43.3953 52.6782 43.5245 52.6459 43.5568 52.6459 43.6213 52.6459 43.6698 52.6459 43.9604 52.6459 44.2509 52.6459 44.5577 52.6459 44.6061 52.6459 44.6545 52.6459 44.7353 52.3714 44.7353 52.097 44.7353 51.8225 44.7353 51.8225 43.476 51.8225 42.2168 51.8225 40.9576 52.097 40.9576 52.3553 40.9576 52.6459 40.9576 52.6459 41.4903 52.6459 42.0231 52.6459 42.5881 52.6943 42.5397 52.7266 42.5074 52.7589 42.4912 53.2109 42.0069 53.6468 41.5387 54.0988 41.0544 54.1634 40.9898 54.228 40.9576 54.3249 40.9576 54.5509 40.9576 54.7769 40.9576 55.0191 40.9576 55.0675 40.9576 55.1159 40.9576 55.1966 40.9737 54.68 41.5226 54.1796 42.0392 53.663 42.572 54.1957 43.2984 54.7285 44.0088 55.2451 44.7191 55.1966 44.703 55.1966 44.7191 55.1966 44.7353Z" transform="matrix(1 0 0 1.00816 493 624.408)"/><path d="M30.9159 43.8796C30.8675 44.0088 30.8029 44.1541 30.7383 44.2994 30.6899 44.4124 30.6415 44.5254 30.593 44.6545 30.5769 44.703 30.5446 44.7353 30.4962 44.7353 30.254 44.7353 30.0119 44.7353 29.7697 44.7353 29.7697 44.7353 29.7536 44.7191 29.7374 44.7191 30.2702 43.4599 30.8029 42.2006 31.3518 40.9253 31.5294 40.9253 31.6908 40.9253 31.8523 40.9253 32.1106 40.9253 32.1267 40.9253 32.2236 41.1674 32.7079 42.2975 33.1922 43.4437 33.6766 44.5738 33.6927 44.6223 33.7089 44.6545 33.725 44.7191 33.6927 44.7191 33.6604 44.7353 33.6281 44.7353 33.4021 44.7353 33.1922 44.7353 32.9662 44.7353 32.8855 44.7353 32.8532 44.703 32.8209 44.6384 32.7402 44.4124 32.6433 44.2025 32.5465 43.9765 32.5303 43.9281 32.4981 43.8796 32.4335 43.8796 31.933 43.8796 31.4487 43.8796 30.9482 43.8796 30.9482 43.8796 30.9321 43.8796 30.9159 43.8796ZM32.1913 43.137C32.159 42.9594 31.7716 42.0231 31.6908 41.9585 31.5294 42.3459 31.368 42.7495 31.2065 43.137 31.5456 43.137 31.8684 43.137 32.1913 43.137Z" transform="matrix(1 0 0 1.00816 493 624.408)"/><path d="M51.8387 46.5918C52.097 46.5918 52.3553 46.5918 52.6136 46.5918 53.1463 47.8511 53.6952 49.1103 54.228 50.3857 53.9213 50.3857 53.6468 50.3857 53.3562 50.3857 53.2432 50.1113 53.1302 49.8368 53.0172 49.5624 52.4844 49.5624 51.9517 49.5624 51.4189 49.5624 51.3059 49.8368 51.1929 50.1113 51.0799 50.3857 50.7893 50.3857 50.531 50.3857 50.2243 50.3857 50.757 49.1103 51.2898 47.8511 51.8387 46.5918ZM52.7105 48.8036C52.549 48.4 52.3876 48.0125 52.2261 47.6251 52.21 47.6251 52.21 47.6251 52.1938 47.6251 52.0324 48.0125 51.871 48.4 51.7095 48.8036 52.0485 48.8036 52.3714 48.8036 52.7105 48.8036Z" transform="matrix(1 0 0 1.00816 493 624.408)"/><path d="M72.0995 47.3506C71.4537 47.3506 70.7918 47.3506 70.1461 47.3506 70.1138 47.2376 70.1138 46.7856 70.1299 46.6241 71.147 46.6241 72.1641 46.6241 73.1812 46.6241 73.1812 46.6564 73.1973 46.6887 73.1973 46.721 73.1973 46.8663 73.1973 46.9954 73.1973 47.1407 73.1973 47.2215 73.1812 47.2699 73.1327 47.3345 72.6645 47.8672 72.1964 48.4161 71.7282 48.965 71.5345 49.191 71.3407 49.4171 71.1309 49.6592 71.2439 49.6915 71.3569 49.6754 71.4699 49.6754 71.5829 49.6754 71.6959 49.6754 71.8251 49.6754 71.9381 49.6754 72.0511 49.6754 72.1641 49.6754 72.2771 49.6754 72.3901 49.6754 72.5031 49.6754 72.6161 49.6754 72.7291 49.6754 72.8583 49.6754 72.9713 49.6754 73.0843 49.6754 73.1973 49.6754 73.1973 49.9175 73.1973 50.1435 73.1973 50.3857 73.1004 50.418 70.3882 50.418 70.0653 50.4018 70.0653 50.3696 70.0492 50.3373 70.0492 50.305 70.0492 50.1758 70.0492 50.0467 70.0492 49.9337 70.0492 49.8368 70.0815 49.7561 70.1461 49.6754 70.6788 49.0619 71.2116 48.4484 71.7443 47.8349 71.8735 47.6896 71.9865 47.5443 72.1156 47.399 72.1156 47.3668 72.0995 47.3506 72.0995 47.3506Z" transform="matrix(1 0 0 1.00816 493 624.408)"/><path d="M59.4425 40.9414C59.491 40.9414 59.5394 40.9414 59.5878 40.9414 60.0399 40.9414 60.4919 40.9414 60.9278 40.9414 61.1538 40.9414 61.396 40.9576 61.622 41.0544 62.1225 41.2481 62.3969 41.6356 62.4292 42.1684 62.4615 42.572 62.3485 42.9433 62.0417 43.2177 61.8157 43.4276 61.5413 43.5406 61.2507 43.5729 60.9924 43.589 60.7341 43.5729 60.4758 43.589 60.4112 43.589 60.3627 43.589 60.282 43.589 60.282 43.9765 60.282 44.3317 60.282 44.7191 59.9914 44.7353 59.7331 44.7353 59.4425 44.7191 59.4425 43.4599 59.4425 42.2168 59.4425 40.9414ZM60.282 42.8464C60.5726 42.8464 60.8632 42.8787 61.1377 42.8303 61.4283 42.7657 61.6058 42.5397 61.5897 42.2491 61.5736 41.9585 61.396 41.7648 61.0892 41.7325 60.8632 41.7002 60.6211 41.7163 60.395 41.7163 60.3627 41.7163 60.3305 41.7163 60.282 41.7325 60.282 42.0876 60.282 42.459 60.282 42.8464Z" transform="matrix(1 0 0 1.00816 493 624.408)"/><path d="M49.191 41.3773C49.0457 41.5872 48.9166 41.7809 48.7713 41.9908 48.7229 41.9585 48.6906 41.9423 48.6421 41.9101 48.4323 41.7809 48.2224 41.684 47.9802 41.6356 47.8349 41.6033 47.6896 41.6033 47.5443 41.6517 47.4152 41.7002 47.3183 41.7648 47.3022 41.9101 47.286 42.0715 47.3345 42.1845 47.4959 42.2491 47.6735 42.3298 47.8511 42.3782 48.0448 42.4267 48.2224 42.4912 48.4 42.5235 48.5776 42.5881 48.6906 42.6204 48.7874 42.685 48.8843 42.7495 49.2233 42.9594 49.3525 43.2823 49.3202 43.6536 49.2718 44.2187 48.965 44.59 48.4 44.703 47.6412 44.8644 46.9632 44.6707 46.3658 44.1864 46.3497 44.1702 46.3497 44.1702 46.3335 44.1379 46.495 43.9442 46.6564 43.7505 46.8179 43.5729 46.947 43.6536 47.06 43.7343 47.173 43.8151 47.4313 43.9604 47.7058 44.0411 48.0125 44.0249 48.1094 44.0088 48.2224 43.9926 48.3193 43.9442 48.5453 43.8312 48.5614 43.5245 48.3354 43.3953 48.2224 43.3307 48.0771 43.2823 47.9479 43.2339 47.7381 43.1693 47.5121 43.1047 47.286 43.0401 47.173 43.0079 47.0762 42.9594 46.9793 42.911 46.6403 42.7334 46.4788 42.4428 46.4627 42.0715 46.4465 41.4903 46.7856 41.0383 47.3668 40.9253 48.0287 40.78 48.626 40.9253 49.1588 41.3289 49.1749 41.345 49.1749 41.3612 49.191 41.3773Z" transform="matrix(1 0 0 1.00816 493 624.408)"/><path d="M28.8979 46.6241C29.2208 46.6241 29.5114 46.6241 29.8181 46.6241 29.9796 47.06 30.141 47.4959 30.3025 47.9479 30.4639 48.3838 30.6253 48.8197 30.8029 49.2879 31.1419 48.3838 31.4648 47.5121 31.7877 46.6403 32.0783 46.6403 32.3689 46.6403 32.6918 46.6403 32.1752 47.9157 31.6747 49.1749 31.1742 50.4341 30.9321 50.4341 30.6899 50.4341 30.4316 50.4341 29.915 49.1588 29.4145 47.8995 28.8979 46.6241Z" transform="matrix(1 0 0 1.00816 493 624.408)"/><path d="M49.9821 46.6403C49.9821 46.8824 49.9821 47.1246 49.9821 47.3829 49.5946 47.3829 49.2233 47.3829 48.8359 47.3829 48.8359 47.7219 48.8359 48.061 48.8359 48.3838 48.8359 48.7229 48.8359 49.0619 48.8359 49.3848 48.8359 49.7076 48.8359 50.0467 48.8359 50.3857 48.5453 50.3857 48.287 50.3857 48.0125 50.3857 48.0125 49.3848 48.0125 48.3838 48.0125 47.3829 47.6251 47.3829 47.2537 47.3829 46.8663 47.3829 46.8663 47.1246 46.8663 46.8824 46.8663 46.6403 46.9632 46.608 49.8045 46.608 49.9821 46.6403Z" transform="matrix(1 0 0 1.00816 493 624.408)"/><path d="M55.5195 47.3829C55.1321 47.3829 54.7607 47.3829 54.3733 47.3829 54.3733 47.1246 54.3733 46.8824 54.3733 46.6403 54.4702 46.608 57.2954 46.5918 57.4891 46.6241 57.4891 46.8663 57.4891 47.1085 57.4891 47.3668 57.1016 47.3668 56.7303 47.3668 56.3429 47.3668 56.3429 48.3838 56.3429 49.3686 56.3429 50.3534 56.2299 50.3857 55.7455 50.3857 55.5034 50.3696 55.5034 49.8691 55.5034 49.3848 55.5034 48.8843 55.5195 48.4 55.5195 47.8995 55.5195 47.3829Z" transform="matrix(1 0 0 1.00816 493 624.408)"/><path d="M63.8983 43.9765C64.5279 43.9765 65.1575 43.9765 65.771 43.9765 65.771 44.2348 65.771 44.4608 65.771 44.703 65.6742 44.7353 63.2041 44.7353 63.0588 44.703 63.0588 43.4599 63.0588 42.2006 63.0588 40.9414 63.3333 40.9414 63.5916 40.9414 63.8822 40.9414 63.8822 41.2804 63.8822 41.6195 63.8822 41.9585 63.8822 42.2975 63.8822 42.6204 63.8822 42.9594 63.8983 43.2823 63.8983 43.6213 63.8983 43.9765Z" transform="matrix(1 0 0 1.00816 493 624.408)"/><path d="M63.0104 49.6431C63.0104 49.9014 63.0104 50.1435 63.0104 50.4018 62.1063 50.4018 61.2184 50.4018 60.3143 50.4018 60.3143 49.1426 60.3143 47.8995 60.3143 46.6403 60.5888 46.6403 60.8471 46.6403 61.1377 46.6403 61.1538 46.834 61.1377 47.0277 61.1377 47.2376 61.1377 47.4313 61.1377 47.6412 61.1377 47.8349 61.1377 48.0287 61.1377 48.2385 61.1377 48.4323 61.1377 48.626 61.1377 48.8359 61.1377 49.0296 61.1377 49.2233 61.1377 49.4332 61.1377 49.6431 61.7673 49.6431 62.3808 49.6431 63.0104 49.6431Z" transform="matrix(1 0 0 1.00816 493 624.408)"/><path d="M19.7442 40.9414C20.0348 40.9414 20.3093 40.9414 20.5837 40.9414 20.5837 40.9737 20.5999 40.9898 20.5999 41.006 20.5999 41.8455 20.5999 42.685 20.5837 43.5083 20.5837 43.6698 20.5514 43.8312 20.503 43.9926 20.3577 44.4285 20.0187 44.6707 19.5666 44.7353 19.0823 44.816 18.6303 44.7353 18.2428 44.4285 18.1782 44.3801 18.1298 44.3317 18.0814 44.2832 18.0652 44.2671 18.0329 44.2348 18.0168 44.2025 18.1944 44.0088 18.3558 43.8312 18.5334 43.6213 18.5818 43.6698 18.6303 43.702 18.6626 43.7505 18.824 43.8958 18.9854 43.9926 19.2115 43.9926 19.4859 43.9926 19.6796 43.8473 19.7119 43.5729 19.7281 43.476 19.7281 43.3792 19.7281 43.2823 19.7281 42.5558 19.7281 41.8293 19.7281 41.1028 19.7442 41.0544 19.7442 41.006 19.7442 40.9414Z" transform="matrix(1 0 0 1.00816 493 624.408)"/><path d="M63.8337 46.6241C64.1082 46.6241 64.3826 46.6241 64.6571 46.6241 64.6571 47.8834 64.6571 49.1265 64.6571 50.3857 64.3826 50.3857 64.1243 50.3857 63.8337 50.3857 63.8337 49.1426 63.8337 47.8834 63.8337 46.6241Z" transform="matrix(1 0 0 1.00816 493 624.408)"/><path d="M27.2674 46.6241C27.5418 46.6241 27.8001 46.6241 28.0584 46.6241 28.0907 46.721 28.1069 50.2081 28.0746 50.3857 27.8163 50.3857 27.5418 50.3857 27.2835 50.3857 27.2512 50.2888 27.2512 46.8179 27.2674 46.6241Z" transform="matrix(1 0 0 1.00816 493 624.408)"/><path d="M46.0429 50.4018C45.7685 50.4018 45.5102 50.4018 45.2519 50.4018 45.2196 50.305 45.2196 46.8179 45.2357 46.6241 45.494 46.6241 45.7685 46.6241 46.0268 46.6241 46.0591 46.721 46.0752 50.2081 46.0429 50.4018Z" transform="matrix(1 0 0 1.00816 493 624.408)"/><path d="M52.4037 46.3174C52.4037 46.0752 52.4037 45.8492 52.4037 45.6232 52.5167 45.5909 53.0172 45.5909 53.1786 45.6232 53.1786 45.8492 53.1786 46.0752 53.1786 46.3335 52.9365 46.3174 52.6782 46.3174 52.4037 46.3174Z" transform="matrix(1 0 0 1.00816 493 624.408)"/><path d="M52.0324 46.3174C51.7579 46.3174 51.5158 46.3174 51.2575 46.3174 51.2252 46.2044 51.2252 45.7362 51.2575 45.6071 51.4996 45.6071 51.7579 45.6071 52.0324 45.6071 52.0324 45.7201 52.0324 45.8492 52.0324 45.9622 52.0324 46.0591 52.0324 46.1721 52.0324 46.3174Z" transform="matrix(1 0 0 1.00816 493 624.408)"/><path d="M125.569 34.2578 118.885 34.2578 121.775 27.9131C121.888 27.671 121.969 27.4288 122.065 27.1866 122.114 26.9768 122.178 26.7508 122.259 26.5086 122.291 26.783 122.34 27.0252 122.421 27.2674 122.501 27.5095 122.614 27.784 122.743 28.0261L125.569 34.2578ZM110.506 41.2159 115.721 41.2159 117.335 37.6319 127.102 37.6319 128.717 41.2159 134.061 41.2159 124.858 22.1658 119.708 22.1658 110.506 41.2159Z" fill="#608EBB" transform="matrix(1 0 0 1.00816 493 624.408)"/><path d="M143.263 26.4763 148.929 26.4763C149.446 26.4763 150.14 26.5247 150.689 27.0091 151.044 27.3319 151.173 27.784 151.173 28.2199 151.173 29.915 149.446 29.9473 148.396 29.9473L143.263 29.9473 143.263 26.4763ZM136.434 41.2159 143.263 41.2159 143.263 34.29 146.911 34.29 150.818 41.2159 158.374 41.2159 153.595 33.612C154.402 33.4021 155.694 33.1277 156.775 31.8361 157.55 30.8998 157.986 29.576 157.986 28.2199 157.986 26.2987 157.13 24.4422 155.742 23.3928 154.144 22.2304 152.093 22.1981 150.431 22.182L136.434 22.182 136.434 41.2159Z" fill="#005691" transform="matrix(1 0 0 1.00816 493 624.408)"/><path d="M90.1486 22.1174 90.1486 33.3698C90.1486 35.5331 90.2293 38.0032 92.8931 39.8759 94.9272 41.3127 97.4134 41.7163 99.8673 41.7163 103.177 41.7163 105.292 40.9253 106.599 40.0696 109.489 38.1646 109.489 35.5493 109.489 33.612L109.489 22.1174 106.793 22.1174 106.793 33.8219C106.793 35.4201 106.793 37.4059 104.355 38.5037 103.306 38.988 101.708 39.3431 99.8996 39.3431 96.913 39.3431 95.4116 38.5037 94.7174 38.0355 93.0868 36.9861 92.8769 35.6784 92.8447 33.4506L92.8447 22.1174 90.1486 22.1174Z" fill="#A3BAD8" transform="matrix(1 0 0 1.00816 493 624.408)"/><path d="M203.044 41.232 203.044 36.9861 203.076 36.9861 205.773 41.232 207.032 41.232 204.077 36.7762 206.87 33.1115 205.756 33.1115 203.06 36.6794 203.028 36.6794 203.028 33.1115 202.043 33.1115 202.043 41.232 203.044 41.232ZM198.233 37.5027C198.572 37.5027 199.331 37.5512 199.396 38.5359 199.476 39.6176 199.412 40.667 199.702 41.232L200.736 41.232C200.59 40.7315 200.477 39.4562 200.461 39.101 200.413 37.4704 200.09 37.1475 199.202 37.0023L199.202 36.9861C200.106 36.8247 200.606 36.082 200.606 35.1295 200.606 34.1125 200.122 33.1115 198.75 33.1115L196.086 33.1115 196.086 41.232 197.071 41.232 197.071 37.5027 198.233 37.5027ZM197.087 34.0156 198.572 34.0156C199.331 34.0156 199.606 34.6614 199.606 35.2587 199.606 35.969 199.266 36.6148 198.556 36.6148L197.087 36.6148 197.087 34.0156ZM192.308 40.5378C191.372 40.5378 190.888 40.0858 190.888 38.3099L190.888 35.5654C190.888 33.8703 192.002 33.8057 192.308 33.8057 192.615 33.8057 193.729 33.8542 193.729 35.5654L193.729 38.3099C193.729 40.0858 193.229 40.5378 192.308 40.5378M192.308 41.4096C193.939 41.4096 194.73 40.5217 194.73 38.2776L194.73 35.6139C194.73 33.9995 193.939 32.9662 192.308 32.9662 190.678 32.9662 189.887 33.9995 189.887 35.6139L189.887 38.2776C189.871 40.5217 190.662 41.4096 192.308 41.4096M181.702 41.232 182.896 41.232 184.462 34.1932 184.479 34.1932 185.948 41.232 187.142 41.232 189.176 33.1115 188.143 33.1115 186.577 40.1503 186.561 40.1503 185.157 33.1115 183.881 33.1115 182.331 40.1503 182.315 40.1503 180.862 33.1115 179.813 33.1115 181.702 41.232ZM174.356 33.1115 174.356 34.0156 176.39 34.0156 176.39 41.232 177.375 41.232 177.375 34.0156 179.409 34.0156 179.409 33.1115 174.356 33.1115ZM173.662 41.232 173.662 40.3279 170.611 40.3279 170.611 37.5189 173.388 37.5189 173.388 36.6148 170.611 36.6148 170.611 33.9995 173.597 33.9995 173.597 33.0954 169.626 33.0954 169.626 41.2159 173.662 41.2159ZM166.994 33.273 166.994 40.0858 166.978 40.0858 164.04 33.273 162.684 33.273 162.684 41.2481 163.54 41.2481 163.54 34.3385 163.556 34.3385 166.542 41.2481 167.866 41.2481 167.866 33.273 166.994 33.273Z" fill="#005691" transform="matrix(1 0 0 1.00816 493 624.408)"/><path d="M215.572 22.1013 215.572 28.9141 215.556 28.9141 212.618 22.1013 211.262 22.1013 211.262 30.0603 212.117 30.0603 212.117 23.1506 212.133 23.1506 215.12 30.0603 216.444 30.0603 216.444 22.1013 215.572 22.1013ZM207.145 29.3822C206.241 29.3822 205.756 28.9464 205.756 27.2028L205.756 24.5067C205.756 22.8439 206.854 22.7793 207.145 22.7793 207.452 22.7793 208.533 22.8277 208.533 24.5067L208.533 27.2028C208.533 28.9464 208.049 29.3822 207.145 29.3822M207.145 30.2379C208.743 30.2379 209.518 29.3661 209.518 27.1544L209.518 24.539C209.518 22.9569 208.743 21.9398 207.145 21.9398 205.547 21.9398 204.772 22.9569 204.772 24.539L204.772 27.1544C204.755 29.3661 205.53 30.2379 207.145 30.2379M202.98 22.1013 202.011 22.1013 202.011 30.0764 202.98 30.0764 202.98 22.1013ZM195.941 22.1013 195.941 22.9892 197.927 22.9892 197.927 30.0764 198.895 30.0764 198.895 22.9892 200.881 22.9892 200.881 22.1013 195.941 22.1013ZM194.536 27.2997 192.115 27.2997 193.293 23.0538 193.309 23.0538 194.536 27.2997ZM190.323 30.0764 191.291 30.0764 191.856 28.1714 194.778 28.1714 195.327 30.0764 196.409 30.0764 193.939 22.1174 192.712 22.1174 190.323 30.0764ZM190.742 22.1013 189.758 22.1013 187.982 29.1078 187.966 29.1078 186.238 22.1013 185.189 22.1013 187.384 30.0603 188.531 30.0603 190.742 22.1013ZM181.847 29.3822C180.927 29.3822 180.459 28.9464 180.459 27.2028L180.459 24.5067C180.459 22.8439 181.556 22.7793 181.847 22.7793 182.138 22.7793 183.235 22.8277 183.235 24.5067L183.235 27.2028C183.235 28.9464 182.751 29.3822 181.847 29.3822M181.847 30.2379C183.445 30.2379 184.22 29.3661 184.22 27.1544L184.22 24.539C184.22 22.9569 183.445 21.9398 181.847 21.9398 180.249 21.9398 179.474 22.9569 179.474 24.539L179.474 27.1544C179.458 29.3661 180.233 30.2379 181.847 30.2379M176.891 22.1013 176.891 28.9141 176.875 28.9141 173.936 22.1013 172.58 22.1013 172.58 30.0603 173.436 30.0603 173.436 23.1506 173.452 23.1506 176.439 30.0603 177.763 30.0603 177.763 22.1013 176.891 22.1013ZM169.9 22.1013 169.9 28.9141 169.884 28.9141 166.946 22.1013 165.59 22.1013 165.59 30.0603 166.446 30.0603 166.446 23.1506 166.462 23.1506 169.448 30.0603 170.772 30.0603 170.772 22.1013 169.9 22.1013ZM163.701 22.1013 162.732 22.1013 162.732 30.0764 163.701 30.0764 163.701 22.1013Z" fill="#005691" transform="matrix(1 0 0 1.00816 493 624.408)"/><path d="M122.76 17.1289 122.76 17.6293 123.389 17.6293 123.389 21.181 124.051 21.181 124.051 17.6293 124.875 17.6293 124.875 17.1289 124.051 17.1289 124.051 16.4347C124.051 16.1118 124.164 15.8051 124.875 15.8535L124.875 15.3853C124.778 15.3692 124.697 15.353 124.568 15.353 123.987 15.353 123.405 15.5145 123.405 16.3378L123.405 17.1289 122.76 17.1289ZM120.693 21.2618C121.549 21.2618 122.227 21.0035 122.227 19.2115 122.227 18.0168 122.098 17.0482 120.693 17.0482 119.289 17.0482 119.16 18.0329 119.16 19.2115 119.143 21.0035 119.821 21.2618 120.693 21.2618M120.693 20.7129C120.015 20.7129 119.838 20.2447 119.838 18.9209 119.838 17.8069 120.177 17.5809 120.693 17.5809 121.194 17.5809 121.549 17.8231 121.549 18.9209 121.533 20.2447 121.371 20.7129 120.693 20.7129M115.269 17.1289 114.607 17.1289 114.607 21.181 115.269 21.181 115.269 18.7917C115.269 18.2428 115.446 17.6939 116.189 17.6939 116.254 17.6939 116.302 17.6939 116.367 17.7101 116.415 17.7101 116.48 17.7262 116.544 17.7262L116.544 17.0482C115.898 17.0482 115.559 17.1127 115.301 17.7424L115.269 17.7424 115.269 17.1289ZM113.493 19.3568 113.493 19.0177C113.493 17.6778 113.202 17.0482 112.056 17.0482 110.652 17.0482 110.522 18.0329 110.522 19.2115 110.522 21.0035 111.2 21.2618 112.056 21.2618 112.912 21.2618 113.461 20.8582 113.461 19.9541L112.734 19.9541C112.718 20.3577 112.476 20.729 112.024 20.729 111.507 20.729 111.2 20.503 111.2 19.3729L113.493 19.3729ZM111.217 18.8724C111.233 17.7424 111.572 17.5486 111.992 17.5486 112.476 17.5486 112.799 17.6939 112.799 18.8724L111.217 18.8724ZM107.277 20.6967 107.277 20.6967C107.52 21.068 107.794 21.2618 108.23 21.2618 108.876 21.2618 109.538 21.0035 109.538 19.2276 109.538 18.2105 109.505 17.0482 108.198 17.0482 107.81 17.0482 107.536 17.2096 107.31 17.5325L107.294 17.5325 107.294 15.3853 106.632 15.3853 106.632 21.181 107.294 21.181 107.294 20.6967ZM107.277 18.9854C107.277 18.4527 107.31 17.5809 108.036 17.5809 108.747 17.5809 108.843 18.146 108.843 19.2276 108.843 19.8411 108.843 20.7129 108.02 20.7129 107.213 20.7129 107.277 19.5989 107.277 18.9854M103.419 21.181 103.419 18.4527C103.419 18.3074 103.451 17.9038 103.645 17.7424 103.823 17.5971 103.887 17.5971 104.146 17.5971 104.678 17.5971 104.791 17.9684 104.791 18.3881L104.791 21.1972 105.453 21.1972 105.453 18.1137C105.453 17.1612 104.775 17.0643 104.339 17.0643 103.968 17.0643 103.597 17.145 103.371 17.5809 103.225 17.2096 102.789 17.0643 102.418 17.0643 101.95 17.0643 101.595 17.2096 101.401 17.6455L101.385 17.6455 101.385 17.145 100.691 17.145C100.707 17.4195 100.723 17.7101 100.723 17.9845L100.723 21.1972 101.385 21.1972 101.385 18.4688C101.385 18.3235 101.417 18.0814 101.53 17.8715 101.627 17.7262 101.901 17.5971 102.095 17.5971 102.628 17.5971 102.741 17.9684 102.741 18.3881L102.741 21.1972 103.419 21.1972ZM99.6897 19.3568 99.6897 19.0177C99.6897 17.6778 99.3992 17.0482 98.2529 17.0482 96.8484 17.0482 96.7192 18.0329 96.7192 19.2115 96.7192 21.0035 97.3973 21.2618 98.2529 21.2618 99.1086 21.2618 99.6575 20.8582 99.6575 19.9541L98.931 19.9541C98.9148 20.3577 98.6727 20.729 98.2206 20.729 97.704 20.729 97.3973 20.503 97.3973 19.3729L99.6897 19.3729ZM97.4134 18.8724C97.4296 17.7424 97.7686 17.5486 98.1883 17.5486 98.6727 17.5486 98.9956 17.6939 98.9956 18.8724L97.4134 18.8724ZM90.8589 16.0311 90.8589 16.0311 92.4572 21.181 93.1514 21.181 94.7658 16.0311 94.7819 16.0311 94.7819 21.181 95.5246 21.181 95.5246 15.3853 94.3138 15.3853 92.8447 20.2447 92.8285 20.2447 91.3755 15.3853 90.1809 15.3853 90.1809 21.181 90.8751 21.181 90.8751 16.0311Z" fill="#005691" transform="matrix(1 0 0 1.00816 493 624.408)"/><path d="M266.135 55.7294C281.521 55.7294 294 43.25 294 27.8647 294 12.4794 281.521 0 266.135 0 250.75 0 238.271 12.4794 238.271 27.8647 238.271 43.25 250.75 55.7294 266.135 55.7294L266.135 55.7294Z" fill="#E52322" transform="matrix(1 0 0 1.00816 493 624.408)"/><path d="M286.703 30.7706C286.703 30.593 286.751 30.3993 286.832 30.2702L288.947 26.7992C289.028 26.6862 289.076 26.5086 289.076 26.3472 289.076 25.8628 288.705 25.4915 288.172 25.4915 287.526 25.4915 287.058 25.0233 287.058 24.3776 287.058 23.8771 286.671 23.5058 286.17 23.5058 286.041 23.5058 285.863 23.5381 285.67 23.6672L274.934 30.6415C273.416 31.6263 272.787 31.8846 272.286 31.8846 271.705 31.8846 271.269 31.4487 271.269 30.9805L276.758 27.4127C277.194 27.1382 277.355 26.9445 277.372 26.331 277.372 24.7489 275.854 23.5058 274.336 23.5058 273.223 23.5058 272.512 23.9417 271.818 24.3937L266.507 27.8324C266.232 28.0261 265.764 28.3813 265.328 28.3813 265.07 28.3813 264.779 28.2844 264.585 28.1391L264.682 27.8647C264.811 27.4934 264.876 27.1059 264.876 26.7508 264.876 24.9426 263.326 23.4896 261.534 23.4896 261.341 23.4896 261.163 23.5058 260.969 23.5381L262.777 18.2751C262.81 18.1621 262.826 18.0329 262.826 17.9361 262.826 17.484 262.487 17.0804 261.922 17.0804 261.55 17.0804 261.227 17.3226 261.098 17.7101L258.693 24.7005 253.882 27.8163C253.607 28.01 253.139 28.3652 252.703 28.3652 252.429 28.3652 252.138 28.2522 251.929 28.1069L252.025 27.8647C252.155 27.4934 252.219 27.1059 252.219 26.7508 252.219 24.9426 250.669 23.4896 248.877 23.4896 248.005 23.4896 247.408 23.7802 246.811 24.1677L238.351 29.6567C238.4 30.3025 238.464 30.9482 238.545 31.5778L245.132 27.3158 244.486 29.2047C244.357 29.5921 244.292 29.9796 244.292 30.3347 244.292 32.1913 245.939 33.5797 247.634 33.5797 249.006 33.5797 250.346 32.7402 250.815 31.4003L251.396 29.689C251.832 29.9473 252.316 30.0764 252.816 30.0764 253.478 30.0764 253.93 29.8666 254.382 29.576L257.773 27.3642 257.127 29.2047C256.998 29.5921 256.933 29.9796 256.933 30.3347 256.933 32.1913 258.58 33.5797 260.275 33.5797 261.647 33.5797 262.987 32.7402 263.455 31.4003L264.037 29.7213C264.456 29.9634 264.941 30.0926 265.409 30.0926 266.071 30.0926 266.523 29.8827 266.975 29.5921L270.317 27.4127 269.687 29.2531C269.509 29.7697 269.429 30.2702 269.429 30.7061 269.429 32.5303 270.817 33.5958 272.27 33.612 273.174 33.5958 274.014 33.2891 275.902 32.0622L285.702 25.7014C285.767 26.2341 286.267 26.783 286.832 26.8961L285.395 29.2531C285.088 29.7536 284.927 30.3347 284.927 30.8998 284.927 32.3043 285.928 33.6281 287.833 33.6281 288.672 33.6281 289.464 33.273 291.223 32.1267L293.903 30.3832C293.968 29.689 294 28.9786 294.016 28.2522L290.238 30.7061C289.609 31.1097 288.527 31.9007 287.817 31.9007 287.01 31.8523 286.703 31.2872 286.703 30.7706L286.703 30.7706ZM250.411 26.7508C250.411 26.9122 250.379 27.0898 250.314 27.2512L249.087 30.7868C248.91 31.3195 248.377 31.8361 247.618 31.8361 246.73 31.8361 246.036 31.1258 246.036 30.2863 246.036 30.1249 246.068 29.9473 246.133 29.7697L247.36 26.2341C247.57 25.6368 248.135 25.1848 248.829 25.1848 249.717 25.2009 250.411 25.9274 250.411 26.7508L250.411 26.7508ZM263.068 26.7508C263.068 26.9122 263.036 27.0898 262.971 27.2512L261.744 30.7868C261.567 31.3195 261.034 31.8361 260.275 31.8361 259.387 31.8361 258.693 31.1258 258.693 30.2863 258.693 30.1249 258.725 29.9473 258.79 29.7697L260.017 26.2341C260.227 25.6368 260.792 25.1848 261.486 25.1848 262.374 25.2009 263.068 25.9274 263.068 26.7508L263.068 26.7508ZM271.786 28.5427 272.448 26.6055C272.674 25.9436 273.093 25.2171 274.159 25.2171 274.95 25.2171 275.37 25.6045 275.515 26.1373L271.786 28.5427 271.786 28.5427ZM249.087 38.875C249.378 38.875 249.62 38.6651 249.62 38.3422 249.62 38.0355 249.378 37.8095 249.087 37.8095 248.797 37.8095 248.554 38.0355 248.554 38.3422 248.571 38.6651 248.813 38.875 249.087 38.875L249.087 38.875ZM251.218 38.3584C251.218 38.0516 250.976 37.8256 250.685 37.8256 250.395 37.8256 250.153 38.0516 250.153 38.3584 250.153 38.6812 250.395 38.8911 250.685 38.8911 250.976 38.875 251.218 38.6651 251.218 38.3584L251.218 38.3584ZM248.151 41.232C248.151 42.2652 248.829 43.0563 249.894 43.0563 250.976 43.0563 251.654 42.2491 251.654 41.232 251.654 40.2149 250.976 39.4077 249.894 39.4077 248.829 39.3916 248.151 40.1988 248.151 41.232L248.151 41.232ZM248.926 41.232C248.926 40.6347 249.249 40.1019 249.894 40.1019 250.54 40.1019 250.863 40.6347 250.863 41.232 250.863 41.8132 250.54 42.3459 249.894 42.3459 249.249 42.3459 248.926 41.8132 248.926 41.232L248.926 41.232ZM252.752 41.9585 252.429 42.5397C252.784 42.7818 253.268 43.0401 253.85 43.0401 254.657 43.0401 255.141 42.5881 255.141 41.9585 255.141 41.3934 254.721 41.1674 254.205 40.9737L253.785 40.8123C253.446 40.6831 253.349 40.5862 253.349 40.3764 253.349 40.1665 253.559 40.0373 253.817 40.0373 254.156 40.0373 254.479 40.1988 254.673 40.3118L254.98 39.779C254.657 39.553 254.318 39.3916 253.785 39.3916 253.091 39.3916 252.59 39.8275 252.59 40.3764 252.59 40.9414 252.929 41.1997 253.43 41.4096L253.817 41.5549C254.173 41.7002 254.366 41.7648 254.366 42.0069 254.366 42.2491 254.173 42.3621 253.85 42.3621 253.398 42.3944 253.026 42.1361 252.752 41.9585L252.752 41.9585ZM256.417 39.5046 255.722 39.5046 255.722 40.1665 256.417 40.1665 256.417 41.684C256.417 42.4428 256.885 43.024 257.74 43.024 258.225 43.024 258.564 42.8141 258.79 42.6688L258.499 42.1038C258.354 42.1845 258.144 42.3137 257.87 42.3137 257.482 42.3137 257.224 42.0876 257.224 41.5549L257.224 40.1665 258.531 40.1665 258.531 39.5046 257.224 39.5046 257.224 38.2615 256.433 38.2615 256.433 39.5046 256.417 39.5046ZM259.339 41.1997C259.339 42.2814 260.049 43.0401 261.131 43.0401 261.793 43.0401 262.228 42.7495 262.535 42.5397L262.228 42.0069C261.986 42.1684 261.712 42.3621 261.227 42.3621 260.598 42.3621 260.21 41.9746 260.13 41.4419L262.6 41.4419C262.6 41.4257 262.6 41.2159 262.6 41.1997 262.6 40.2956 262.148 39.4239 261.034 39.4239 260.001 39.4077 259.339 40.1826 259.339 41.1997L259.339 41.1997ZM260.13 40.8607C260.227 40.3602 260.549 40.0212 261.018 40.0212 261.567 40.0212 261.809 40.4248 261.841 40.8607L260.13 40.8607 260.13 40.8607ZM264.521 39.5046 263.698 39.5046 263.698 42.9433 264.521 42.9433 264.521 41.1674C264.521 40.5862 264.924 40.1988 265.377 40.1988 265.506 40.1988 265.635 40.2311 265.748 40.2472L265.861 39.5046C265.732 39.4562 265.619 39.44 265.473 39.44 265.005 39.44 264.731 39.7629 264.521 40.1665L264.521 39.5046 264.521 39.5046ZM267.637 39.5046 266.813 39.5046 266.813 42.9433 267.637 42.9433 267.637 41.1674C267.637 40.5862 268.04 40.1988 268.492 40.1988 268.621 40.1988 268.751 40.2311 268.864 40.2472L268.977 39.5046C268.848 39.4562 268.734 39.44 268.589 39.44 268.121 39.44 267.847 39.7629 267.637 40.1665L267.637 39.5046 267.637 39.5046ZM269.59 41.1997C269.59 42.2814 270.3 43.0401 271.382 43.0401 272.044 43.0401 272.48 42.7495 272.787 42.5397L272.48 42.0069C272.238 42.1684 271.963 42.3621 271.479 42.3621 270.849 42.3621 270.462 41.9746 270.381 41.4419L272.851 41.4419C272.851 41.4257 272.851 41.2159 272.851 41.1997 272.851 40.2956 272.399 39.4239 271.285 39.4239 270.252 39.4077 269.59 40.1826 269.59 41.1997L269.59 41.1997ZM270.365 40.8607C270.462 40.3602 270.785 40.0212 271.253 40.0212 271.802 40.0212 272.044 40.4248 272.076 40.8607L270.365 40.8607 270.365 40.8607ZM273.804 38.3422C273.804 38.6651 274.046 38.8911 274.336 38.8911 274.627 38.8911 274.885 38.6651 274.885 38.3422 274.885 38.0193 274.627 37.8095 274.336 37.8095 274.046 37.8095 273.804 38.0355 273.804 38.3422L273.804 38.3422ZM274.756 39.5046 273.933 39.5046 273.933 42.9433 274.756 42.9433 274.756 39.5046 274.756 39.5046ZM275.87 41.1997C275.87 42.2814 276.613 43.0401 277.678 43.0401 278.356 43.0401 278.76 42.7334 279.018 42.5074L278.631 41.9746C278.453 42.1038 278.163 42.3298 277.743 42.3298 277.162 42.3298 276.661 41.9101 276.661 41.1997 276.661 40.5378 277.162 40.1181 277.678 40.1181 278.098 40.1181 278.34 40.2795 278.502 40.3764L278.857 39.7952C278.599 39.6176 278.211 39.3916 277.646 39.3916 276.564 39.4077 275.87 40.2149 275.87 41.1997L275.87 41.1997ZM280.826 37.648 280.019 37.648 280.019 42.9433 280.826 42.9433 280.826 41.119C280.826 40.4087 281.23 40.1019 281.65 40.1019 282.053 40.1019 282.344 40.3441 282.344 40.8123L282.344 42.9271 283.151 42.9271 283.151 40.554C283.151 39.8113 282.651 39.3916 281.924 39.3916 281.375 39.3916 281.052 39.6822 280.826 39.9889L280.826 37.648 280.826 37.648Z" fill="#FFFFFF" transform="matrix(1 0 0 1.00816 493 624.408)"/></g></svg>