<svg width="149" height="49" xmlns="http://www.w3.org/2000/svg" xmlns:xlink="http://www.w3.org/1999/xlink" xml:space="preserve" overflow="hidden"><defs><clipPath id="clip0"><rect x="821" y="649" width="149" height="49"/></clipPath></defs><g clip-path="url(#clip0)" transform="translate(-821 -649)"><path d="M66.9389 8.72279 57.6201 8.72279 57.6201 17.943 66.9389 17.9805C68.1964 17.9805 69.2803 17.5253 70.1905 16.6198 71.1008 15.7095 71.556 14.6162 71.556 13.3352 71.556 12.0777 71.1008 10.9985 70.1905 10.0882 69.2803 9.17793 68.1964 8.72279 66.9389 8.72279ZM70.8756 31.8882 65.4937 22.6305 57.6201 22.6305 57.6201 31.8882 53.003 31.8882 53.003 4.07282 66.9389 4.07282C69.482 4.07282 71.6639 4.98311 73.4845 6.79899 75.305 8.61487 76.2153 10.792 76.2153 13.3305 76.2153 15.2543 75.6663 17.0045 74.5684 18.5811 73.4985 20.1295 72.1331 21.2416 70.4721 21.9079L76.2153 31.8882 70.8756 31.8882Z" fill="#5582AB" fill-rule="evenodd" transform="matrix(1 0 0 1.00239 821.089 649)"/><path d="M83.7228 4.07282 88.3399 4.07282 88.3399 31.8882 83.7228 31.8882Z" fill="#5582AB" fill-rule="evenodd" transform="matrix(1 0 0 1.00239 821.089 649)"/><path d="M103.965 20.3031C101.717 20.3031 99.803 19.5148 98.2217 17.9383 96.6404 16.3617 95.8521 14.4379 95.8521 12.1669 95.8521 9.94745 96.6404 8.05181 98.2217 6.47523 99.7748 4.8705 101.689 4.06813 103.965 4.06813L119.064 4.06813 119.064 8.7181 103.965 8.7181C103.482 8.7181 103.027 8.81194 102.6 8.99963 102.173 9.15916 101.797 9.39847 101.473 9.72223 101.154 10.0413 100.901 10.4167 100.713 10.8437 100.549 11.2707 100.469 11.7117 100.469 12.1669 100.469 13.1288 100.802 13.9546 101.473 14.649 102.144 15.3435 102.975 15.6907 103.965 15.6907L110.914 15.6907C113.162 15.6907 115.076 16.479 116.657 18.0556 118.262 19.6321 119.064 21.5419 119.064 23.7847 119.064 26.0041 118.262 27.9139 116.657 29.5139 115.076 31.0905 113.162 31.8788 110.914 31.8788L95.8521 31.8788 95.8521 27.2288 110.914 27.2288C111.397 27.2288 111.853 27.149 112.28 26.9895 112.707 26.8018 113.082 26.5625 113.406 26.2669 113.725 25.9478 113.969 25.5725 114.128 25.1455 114.316 24.7185 114.41 24.2633 114.41 23.7847 114.41 22.851 114.063 22.0345 113.363 21.3401 112.692 20.6457 111.876 20.2984 110.914 20.2984L103.965 20.2984Z" fill="#5582AB" fill-rule="evenodd" transform="matrix(1 0 0 1.00239 821.089 649)"/><path d="M138.983 4.07282C140.911 4.07282 142.704 4.43412 144.365 5.15672 146.049 5.87932 147.537 6.87876 148.822 8.16442L145.528 11.449C143.708 9.63308 141.526 8.72279 138.983 8.72279 137.697 8.72279 136.491 8.96209 135.37 9.44539 134.244 9.92868 133.254 10.595 132.4 11.449 131.569 12.2795 130.898 13.2554 130.391 14.3769 129.908 15.4983 129.669 16.6995 129.669 17.9852 129.669 19.2708 129.908 20.472 130.391 21.5935 130.898 22.7149 131.569 23.705 132.4 24.5589 133.23 25.3848 134.206 26.0417 135.332 26.5203 136.482 27.0036 137.702 27.2429 138.987 27.2429 141.503 27.2429 143.684 26.3467 145.533 24.5589L148.827 27.8059C147.541 29.0916 146.054 30.091 144.369 30.8136 142.708 31.5362 140.916 31.8975 138.987 31.8975 137.059 31.8975 135.253 31.5362 133.563 30.8136 131.879 30.0676 130.391 29.0635 129.106 27.8059 127.848 26.5531 126.844 25.0798 126.093 23.4 125.371 21.7155 125.009 19.9137 125.009 17.9899 125.009 16.1224 125.371 14.344 126.093 12.6595 126.844 10.9516 127.848 9.46416 129.106 8.21134 130.391 6.93037 131.879 5.92624 133.563 5.20364 135.248 4.4482 137.054 4.07282 138.983 4.07282Z" fill="#5582AB" fill-rule="evenodd" transform="matrix(1 0 0 1.00239 821.089 649)"/><path d="M53.3643 42.6427C54.2746 43.2902 55.4242 43.5811 56.175 43.5811 57.0759 43.5811 57.7234 43.1917 57.7234 42.3564 57.7234 41.357 56.7756 41.2209 55.6025 40.869 54.3403 40.4796 53.1532 39.9071 53.1532 38.2977 53.1532 36.6601 54.3778 35.6748 56.1984 35.6748 57.0712 35.6748 58.1222 35.8859 58.8823 36.3364L58.8823 37.9364C57.9814 37.3499 56.921 37.0871 56.1843 37.0871 55.335 37.0871 54.7344 37.4249 54.7344 38.1851 54.7344 39.147 55.6823 39.2737 56.7709 39.6068 58.1081 40.0197 59.3046 40.6063 59.3046 42.2673 59.3046 43.9659 58.0331 44.9888 56.1562 44.9888 55.2694 44.9888 54.1855 44.7495 53.3596 44.3037L53.3596 42.6427Z" transform="matrix(1 0 0 1.00239 821.089 649)"/><path d="M63.8279 38.5698C65.7376 38.5698 67.1641 39.9681 67.1641 41.7793 67.1641 43.5905 65.7423 44.9888 63.8279 44.9888 61.9135 44.9888 60.4918 43.5905 60.4918 41.7793 60.4918 39.9681 61.9182 38.5698 63.8279 38.5698ZM63.8279 43.6656C64.879 43.6656 65.6532 42.8397 65.6532 41.7793 65.6532 40.7189 64.879 39.893 63.8279 39.893 62.7769 39.893 62.0027 40.7189 62.0027 41.7793 62.0027 42.8397 62.7769 43.6656 63.8279 43.6656Z" transform="matrix(1 0 0 1.00239 821.089 649)"/><path d="M69.1348 39.9963 68.2104 39.9963 68.2104 38.7106 69.1348 38.7106 69.1348 37.6596C69.1348 36.8337 69.2849 36.1487 69.7354 35.7123 70.1483 35.3135 70.7583 35.1774 71.3214 35.1774 71.6733 35.1774 72.0346 35.229 72.3067 35.3275L72.3067 36.5991C72.0674 36.5381 71.6827 36.4865 71.4574 36.4865 70.7818 36.4865 70.6457 36.937 70.6457 37.5235L70.6457 38.7106 72.1425 38.7106 72.1425 39.9963 70.6457 39.9963 70.6457 44.8527 69.1348 44.8527 69.1348 39.9963Z" transform="matrix(1 0 0 1.00239 821.089 649)"/><path d="M77.3227 44.7025C77.0505 44.8668 76.5485 44.9888 76.0746 44.9888 75.5396 44.9888 74.9625 44.8245 74.5777 44.3882 74.2634 44.0503 74.0804 43.5389 74.0804 42.6286L74.0804 39.9916 73.0059 39.9916 73.0059 38.7106 74.0804 38.7106 74.0804 37.073 75.5913 36.8103 75.5913 38.7059 77.3274 38.7059 77.3274 39.9916 75.5913 39.9916 75.5913 42.4127C75.5913 43.0978 75.7179 43.6749 76.403 43.6749 76.7268 43.6749 77.0787 43.5483 77.3274 43.4122L77.3274 44.7025Z" transform="matrix(1 0 0 1.00239 821.089 649)"/><path d="M78.2001 38.7106 79.8002 38.7106 80.5744 41.0567C80.7761 41.6573 80.9591 42.2532 81.1468 42.8913L81.1703 42.8913C81.358 42.3189 81.5926 41.6198 81.7943 41.0567L82.6202 38.7106 83.7181 38.7106 84.5533 41.0567C84.7786 41.6948 84.9897 42.3048 85.1774 42.8913L85.2009 42.8913C85.3745 42.2907 85.5762 41.6667 85.7733 41.0567L86.5475 38.7106 88.0725 38.7106 85.961 44.8527 84.4736 44.8527 83.7134 42.7177C83.5117 42.1547 83.3146 41.5541 83.141 41.0051L83.1175 41.0051C82.9439 41.5541 82.7562 42.1171 82.5451 42.7177L81.7943 44.8527 80.3069 44.8527 78.2001 38.7106Z" transform="matrix(1 0 0 1.00239 821.089 649)"/><path d="M92.6849 44.4022C92.3095 44.7025 91.6714 44.9888 90.8596 44.9888 90.3623 44.9888 89.8461 44.8761 89.4379 44.5758 89.0156 44.2615 88.7529 43.7782 88.7529 43.1635 88.7529 42.4878 89.0766 41.9904 89.5411 41.6761 90.0057 41.3617 90.6297 41.2538 91.2632 41.2538 91.6855 41.2538 92.0749 41.3054 92.4503 41.3898L92.4503 41.0285C92.4503 40.6532 92.3518 40.381 92.15 40.1933 91.9248 39.9916 91.5776 39.893 91.113 39.893 90.3764 39.893 89.7382 40.1417 89.2643 40.442L89.2643 39.0672C89.7523 38.7904 90.4608 38.5698 91.3383 38.5698 92.1359 38.5698 92.8491 38.7575 93.309 39.1423 93.7219 39.4942 93.9565 40.015 93.9565 40.7799L93.9565 43.14C93.9565 43.4779 94.0832 43.7125 94.3788 43.7125 94.4914 43.7125 94.6181 43.6749 94.7166 43.6233L94.7166 44.8105C94.529 44.8996 94.2662 44.9606 93.9659 44.9606 93.4685 44.9606 92.9899 44.787 92.7037 44.3975L92.6849 44.3975ZM92.4456 42.3799C92.1735 42.3048 91.7981 42.2532 91.4978 42.2532 90.8737 42.2532 90.2637 42.455 90.2637 43.0509 90.2637 43.5483 90.7001 43.7876 91.2397 43.7876 91.6996 43.7876 92.15 43.6233 92.4503 43.4122L92.4503 42.3799Z" transform="matrix(1 0 0 1.00239 821.089 649)"/><path d="M96.1055 38.7106 97.6023 38.7106 97.6023 39.574 97.6258 39.588C98.0528 38.9874 98.6862 38.6496 99.4135 38.6496 99.5496 38.6496 99.6904 38.6637 99.8264 38.7012L99.8264 40.1511C99.6763 40.1136 99.5261 40.0901 99.3291 40.0901 98.6159 40.0901 98.0434 40.4045 97.6164 41.0004L97.6164 44.8574 96.1055 44.8574 96.1055 38.7106Z" transform="matrix(1 0 0 1.00239 821.089 649)"/><path d="M102.21 42.1922C102.398 43.2151 103.21 43.7406 104.246 43.7406 105.021 43.7406 105.743 43.4544 106.344 43.0274L106.344 44.4116C105.771 44.7729 104.894 44.9841 104.096 44.9841 102.126 44.9841 100.676 43.7125 100.676 41.7887 100.676 39.8414 102.135 38.5651 103.81 38.5651 105.335 38.5651 106.682 39.6021 106.682 41.5728 106.682 41.7746 106.668 42.0233 106.644 42.1828L102.21 42.1828ZM105.269 41.1412C105.157 40.2168 104.481 39.7945 103.796 39.7945 103.097 39.7945 102.398 40.2215 102.21 41.1412L105.269 41.1412Z" transform="matrix(1 0 0 1.00239 821.089 649)"/><path d="M119.177 44.1535C118.365 44.6509 117.216 44.9888 116.066 44.9888 113.284 44.9888 111.257 43.0415 111.257 40.3576 111.257 37.6971 113.265 35.6748 116.113 35.6748 117.263 35.6748 118.21 35.9985 118.886 36.3974L118.886 38.0584C118.149 37.4953 117.15 37.1106 116.127 37.1106 114.156 37.1106 112.843 38.5464 112.843 40.3435 112.843 42.0937 114.077 43.5764 116.141 43.5764 116.69 43.5764 117.216 43.4638 117.615 43.262L117.615 41.5259 115.817 41.5259 115.817 40.1793 119.177 40.1793 119.177 44.1535Z" transform="matrix(1 0 0 1.00239 821.089 649)"/><path d="M129.331 41.2538C129.331 40.7282 129.242 40.442 129.054 40.2309 128.852 40.0056 128.594 39.9071 128.266 39.9071 127.693 39.9071 127.102 40.2449 126.731 40.6297 126.746 40.7423 126.746 40.869 126.746 41.0051L126.746 44.8527 125.235 44.8527 125.235 41.2585C125.235 40.7236 125.174 40.4467 124.986 40.2356 124.775 39.9963 124.489 39.9118 124.188 39.9118 123.616 39.9118 123.025 40.2637 122.654 40.6485L122.654 44.8574 121.143 44.8574 121.143 38.7106 122.64 38.7106 122.64 39.3581 122.663 39.3722C123.161 38.9124 123.836 38.5745 124.625 38.5745 125.347 38.5745 126.098 38.8608 126.459 39.5364 127.144 38.8983 127.909 38.5745 128.707 38.5745 129.383 38.5745 129.932 38.7998 130.307 39.1986 130.682 39.6115 130.842 40.1464 130.842 41.0098L130.842 44.8574 129.331 44.8574 129.331 41.2538Z" transform="matrix(1 0 0 1.00239 821.089 649)"/><path d="M132.864 35.3135 134.375 35.3135 134.375 39.0203 134.399 39.0344C134.788 38.7857 135.36 38.5745 136.022 38.5745 137.622 38.5745 138.969 39.7992 138.969 41.6855 138.969 43.6093 137.585 44.9935 135.684 44.9935 135.098 44.9935 134.596 44.8574 134.15 44.6697L132.864 44.8949 132.864 35.3135ZM135.637 43.7266C136.773 43.7266 137.448 42.8397 137.448 41.7558 137.448 40.6813 136.787 39.8696 135.698 39.8696 135.173 39.8696 134.722 40.0573 134.375 40.306L134.375 43.4028C134.699 43.5905 135.196 43.7266 135.637 43.7266Z" transform="matrix(1 0 0 1.00239 821.089 649)"/><path d="M140.667 35.8108 142.253 35.8108 142.253 39.4567 146.659 39.4567 146.659 35.8108 148.245 35.8108 148.245 44.8527 146.659 44.8527 146.659 40.869 142.253 40.869 142.253 44.8527 140.667 44.8527 140.667 35.8108Z" transform="matrix(1 0 0 1.00239 821.089 649)"/><path d="M44.8245 28.979 35.1492 38.6543 38.6918 38.6543 38.6918 43.2996 27.393 43.2996 27.393 43.2996 27.393 32.0008 32.0383 32.0008 32.0383 35.5434 41.7136 25.8681 44.8245 28.979Z" fill="#5582AB" transform="matrix(1 0 0 1.00239 821.089 649)"/><path d="M23.0152 7.17437 13.3446 16.8497 16.8872 16.8497 16.8872 21.4949 5.5884 21.4949 5.5884 21.4949 5.5884 10.1961 10.2337 10.1961 10.2337 13.7387 19.9043 4.06344 23.0152 7.17437Z" fill="#FFFFFF" transform="matrix(1 0 0 1.00239 821.089 649)"/><path d="M19.9043 5.2881 21.7906 7.17437 12.7299 16.235 11.2472 17.7177 13.3446 17.7177 16.0192 17.7177 16.0192 20.6316 6.45646 20.6316 6.45646 11.0689 9.37031 11.0689 9.37031 13.7434 9.37031 15.8408 10.853 14.3581 19.9043 5.2881M19.9043 4.06344 10.2337 13.7341 10.2337 10.1914 5.5884 10.1914 5.5884 21.4902 5.5884 21.4902 16.8872 21.4902 16.8872 16.845 13.3446 16.845 23.0199 7.16967 19.9043 4.06344 19.9043 4.06344Z" transform="matrix(1 0 0 1.00239 821.089 649)"/><path d="M7.1556 25.8493 16.8309 35.5246 16.8309 31.982 21.4762 31.982 21.4762 43.2808 21.4762 43.2808 10.1774 43.2808 10.1774 38.6355 13.72 38.6355 4.04467 28.9649 7.1556 25.8493Z" fill="#FFFFFF" transform="matrix(1 0 0 1.00239 821.089 649)"/><path d="M7.1556 27.0787 16.2162 36.1393 17.699 37.622 17.699 35.5246 17.699 32.8501 20.6128 32.8501 20.6128 42.4127 11.0501 42.4127 11.0501 39.4989 13.7247 39.4989 15.8221 39.4989 14.3393 38.0162 5.27403 28.9649 7.1556 27.0787M7.1556 25.8493 4.04467 28.9602 13.72 38.6355 10.1774 38.6355 10.1774 43.2808 21.4762 43.2808 21.4762 43.2808 21.4762 31.982 16.8309 31.982 16.8309 35.5246 7.1556 25.8493 7.1556 25.8493Z" transform="matrix(1 0 0 1.00239 821.089 649)"/><path d="M28.9649 4.04467 38.6402 13.72 38.6402 10.1774 43.2855 10.1774 43.2855 21.4762 43.2855 21.4762 31.9867 21.4762 31.9867 16.8309 35.5293 16.8309 25.8493 7.1556 28.9649 4.04467Z" fill="#FFFFFF" transform="matrix(1 0 0 1.00239 821.089 649)"/><path d="M28.9649 5.27403 38.0255 14.3347 39.5083 15.8174 39.5083 13.72 39.5083 11.0454 42.4221 11.0454 42.4221 20.6081 32.8594 20.6081 32.8594 17.6943 35.534 17.6943 37.6314 17.6943 36.1487 16.2115 27.0787 7.1556 28.9649 5.27403M28.9649 4.04467 25.854 7.1556 35.5293 16.8309 31.9867 16.8309 31.9867 21.4762 43.2855 21.4762 43.2855 21.4762 43.2855 10.1774 38.6402 10.1774 38.6402 13.72 28.9649 4.04467 28.9649 4.04467Z" transform="matrix(1 0 0 1.00239 821.089 649)"/><path d="M5.27403 24.4416C5.27403 25.898 4.0934 27.0787 2.63701 27.0787 1.18063 27.0787-5.36979e-08 25.898-5.36979e-08 24.4416-5.36979e-08 22.9853 1.18063 21.8046 2.63701 21.8046 4.0934 21.8046 5.27403 22.9853 5.27403 24.4416Z" transform="matrix(1 0 0 1.00239 821.089 649)"/><path d="M27.0787 2.63701C27.0787 4.0934 25.898 5.27403 24.4416 5.27403 22.9853 5.27403 21.8046 4.0934 21.8046 2.63701 21.8046 1.18063 22.9853-5.36979e-08 24.4416-5.36979e-08 25.898-5.36979e-08 27.0787 1.18063 27.0787 2.63701Z" transform="matrix(1 0 0 1.00239 821.089 649)"/><path d="M48.8833 24.4416C48.8833 25.898 47.7027 27.0787 46.2463 27.0787 44.7899 27.0787 43.6093 25.898 43.6093 24.4416 43.6093 22.9853 44.7899 21.8046 46.2463 21.8046 47.7027 21.8046 48.8833 22.9853 48.8833 24.4416Z" transform="matrix(1 0 0 1.00239 821.089 649)"/><path d="M27.0787 46.2463C27.0787 47.7027 25.898 48.8833 24.4416 48.8833 22.9853 48.8833 21.8046 47.7027 21.8046 46.2463 21.8046 44.7899 22.9853 43.6093 24.4416 43.6093 25.898 43.6093 27.0787 44.7899 27.0787 46.2463Z" transform="matrix(1 0 0 1.00239 821.089 649)"/></g></svg>